<svg width="25" height="25" viewBox="0 0 25 25" fill="none" xmlns="http://www.w3.org/2000/svg">
<g clip-path="url(#clip0_8_137)">
<path d="M3.98444 13.1434C5.39999 14.598 7.2511 15.605 9.42888 15.605C10.5178 15.605 11.6067 15.3812 12.4778 14.9337" stroke="white" stroke-width="0.83" stroke-miterlimit="10" stroke-linecap="round" stroke-linejoin="round"/>
<path d="M8.01333 20.0806C10.5391 20.0806 12.5867 17.9766 12.5867 15.3812C12.5867 12.7858 10.5391 10.6819 8.01333 10.6819C5.48755 10.6819 3.44 12.7858 3.44 15.3812C3.44 17.9766 5.48755 20.0806 8.01333 20.0806Z" stroke="white" stroke-width="0.83" stroke-miterlimit="10" stroke-linecap="round" stroke-linejoin="round"/>
<path d="M8.01337 21.1994V25.675" stroke="white" stroke-width="0.83" stroke-miterlimit="10" stroke-linecap="round" stroke-linejoin="round"/>
<path d="M15.5267 25.675C14.0022 22.9897 11.1711 21.1994 8.01334 21.1994C4.85556 21.1994 2.02445 22.9897 0.5 25.675" stroke="white" stroke-width="0.83" stroke-miterlimit="10" stroke-linecap="round" stroke-linejoin="round"/>
<path d="M19.9911 18.9414C21.7953 18.9414 23.2578 17.4386 23.2578 15.5847C23.2578 13.7309 21.7953 12.2281 19.9911 12.2281C18.1869 12.2281 16.7244 13.7309 16.7244 15.5847C16.7244 17.4386 18.1869 18.9414 19.9911 18.9414Z" stroke="white" stroke-width="0.83" stroke-miterlimit="10" stroke-linecap="round" stroke-linejoin="round"/>
<path d="M23.2577 15.5848C22.8222 15.6966 22.2778 15.6966 21.8422 15.6966C20.1 15.6966 18.4666 15.0253 17.16 13.9064" stroke="white" stroke-width="0.83" stroke-miterlimit="10" stroke-linecap="round" stroke-linejoin="round"/>
<path d="M25 23.7526C24.2378 21.6268 22.2778 20.1722 19.8822 20.1722C18.3578 20.1722 17.0511 20.8435 16.0711 21.8505" stroke="white" stroke-width="0.83" stroke-miterlimit="10" stroke-linecap="round" stroke-linejoin="round"/>
<path d="M17.1055 3.67021C17.1055 2.55132 16.2344 1.65621 15.1455 1.65621C14.0567 1.65621 13.1855 2.55132 13.1855 3.67021C13.1855 4.7891 14.0567 5.68421 15.1455 5.68421C16.2344 5.68421 17.1055 6.50475 17.1055 7.62364C17.1055 8.74253 16.2344 9.63764 15.1455 9.63764C14.0567 9.63764 13.1855 8.74253 13.1855 7.62364" stroke="white" stroke-width="0.83" stroke-miterlimit="10" stroke-linecap="round" stroke-linejoin="round"/>
<path d="M15.1456 0.5V1.61889" stroke="white" stroke-width="0.83" stroke-miterlimit="10" stroke-linecap="round" stroke-linejoin="round"/>
<path d="M15.1456 9.67493V10.7938" stroke="white" stroke-width="0.83" stroke-miterlimit="10" stroke-linecap="round" stroke-linejoin="round"/>
</g>
<defs>
<clipPath id="clip0_8_137">
<rect width="24" height="24" fill="white" transform="translate(0.5 0.5)"/>
</clipPath>
</defs>
</svg>
