<svg width="30" height="31" viewBox="0 0 30 31" fill="none" xmlns="http://www.w3.org/2000/svg">
<g clip-path="url(#clip0_6_40)">
<path d="M4.78751 4.58337C3.60543 4.58337 2.63751 5.55129 2.63751 6.73337V18.5584C2.63751 19.6082 3.40177 20.4753 4.40118 20.658L5.10665 24.6388C5.31241 25.802 6.42941 26.5915 7.59259 26.3857L25.582 23.1775C26.7452 22.9718 27.5347 21.8548 27.3289 20.6916L25.2629 9.05134C25.2545 8.99885 25.2377 8.94846 25.2125 8.90017V6.73337C25.2125 5.55129 24.2446 4.58337 23.0625 4.58337H4.78751ZM4.78751 5.65837H23.0625C23.663 5.65837 24.1375 6.13289 24.1375 6.73337V8.34587H3.71251V6.73337C3.71251 6.13289 4.18702 5.65837 4.78751 5.65837ZM3.71251 11.0334H24.1375V18.5584C24.1375 19.1589 23.663 19.6334 23.0625 19.6334H4.78751C4.18702 19.6334 3.71251 19.1589 3.71251 18.5584V11.0334ZM6.40001 12.6459V13.7209H15V12.6459H6.40001ZM25.2125 14.9135L26.2707 20.8763C26.3757 21.4663 25.9894 22.0143 25.3973 22.1193L7.40782 25.3275C6.81783 25.4325 6.26984 25.0462 6.16486 24.4541L5.49298 20.7084H23.0625C24.2446 20.7084 25.2125 19.7405 25.2125 18.5584V14.9135Z" fill="white"/>
</g>
<defs>
<clipPath id="clip0_6_40">
<rect width="30" height="30" fill="white" transform="translate(0 0.5)"/>
</clipPath>
</defs>
</svg>
