<svg width="30" height="31" viewBox="0 0 30 31" fill="none" xmlns="http://www.w3.org/2000/svg">
<g clip-path="url(#clip0_8_167)">
<path d="M4.78751 3.1375V27.8625H5.32501H25.2125V3.1375H4.78751ZM5.86251 4.2125H24.1375V26.7875H5.86251V4.2125ZM8.55001 7.975V9.05H21.45V7.975H8.55001ZM8.55001 15.5V16.575H16.075V15.5H8.55001ZM18.7625 15.5V16.575H21.45V15.5H18.7625ZM8.55001 18.725V19.8H16.075V18.725H8.55001ZM18.7625 18.725V19.8H21.45V18.725H18.7625ZM8.55001 21.95V23.025H16.075V21.95H8.55001ZM18.7625 21.95V23.025H21.45V21.95H18.7625Z" fill="white"/>
<path d="M4.78751 3.1375V27.8625H5.32501H25.2125V3.1375H4.78751ZM5.86251 4.2125H24.1375V26.7875H5.86251V4.2125ZM8.55001 7.975V9.05H21.45V7.975H8.55001ZM8.55001 15.5V16.575H16.075V15.5H8.55001ZM18.7625 15.5V16.575H21.45V15.5H18.7625ZM8.55001 18.725V19.8H16.075V18.725H8.55001ZM18.7625 18.725V19.8H21.45V18.725H18.7625ZM8.55001 21.95V23.025H16.075V21.95H8.55001ZM18.7625 21.95V23.025H21.45V21.95H18.7625Z" fill="white"/>
</g>
<defs>
<clipPath id="clip0_8_167">
<rect width="30" height="30" fill="white" transform="translate(0 0.5)"/>
</clipPath>
</defs>
</svg>
