<svg width="33" height="33" viewBox="0 0 33 33" fill="none" xmlns="http://www.w3.org/2000/svg">
<g clip-path="url(#clip0_146_3)">
<g clip-path="url(#clip1_146_3)">
<path d="M18.6995 3.09375C18.1949 3.09375 17.7375 3.47985 17.7375 4.00093V5.48657C17.7375 6.00765 18.1949 6.39375 18.6995 6.39375H18.7108C18.4533 6.75975 18.1983 7.2023 17.947 7.73357C17.4497 8.78483 16.9768 10.0842 16.6217 11.2914L15.7733 10.8104C15.6156 10.7207 15.4177 10.7445 15.2859 10.8692L14.1789 11.9158C13.2395 11.0616 11.9928 10.5187 10.6082 10.5187C7.72714 10.5187 5.36251 12.7778 5.36251 15.8812H4.31515C3.5317 15.8812 2.88751 16.5254 2.88751 17.3089V18.5778C2.88751 19.3615 3.5317 20.0063 4.31515 20.0063H4.53751V22.3443C4.53751 22.4342 4.54525 22.4239 4.54799 22.4369C4.55071 22.45 4.55271 22.4591 4.55524 22.4692C4.56028 22.4893 4.56644 22.5112 4.57377 22.5376C4.58841 22.5905 4.60845 22.6616 4.63419 22.7495C4.68569 22.9255 4.75866 23.1691 4.84608 23.4593C5.02093 24.0398 5.2538 24.8039 5.48658 25.5653C5.95215 27.0883 6.41713 28.6003 6.41713 28.6003C6.42583 28.628 6.43744 28.6547 6.45177 28.68C6.60139 28.9478 6.74413 29.2192 6.94564 29.4559C7.14716 29.6926 7.4548 29.9062 7.82704 29.9062H25.173C25.5619 29.9062 25.9053 29.7163 26.1164 29.4664C26.3276 29.2164 26.4476 28.9289 26.5692 28.6373C26.5744 28.6252 26.5789 28.6128 26.5829 28.6003C26.5829 28.6003 27.0479 27.0883 27.5134 25.5653C27.7462 24.8039 27.9791 24.0398 28.1539 23.4593C28.2414 23.1691 28.3143 22.9255 28.3658 22.7495C28.3916 22.6616 28.4116 22.5905 28.4263 22.5376C28.4336 22.5112 28.4397 22.4893 28.4448 22.4692C28.4473 22.4591 28.4493 22.45 28.452 22.4369C28.4548 22.4239 28.4625 22.4342 28.4625 22.3443V20.0063H28.6849C29.4683 20.0063 30.1125 19.3621 30.1125 18.5786V17.3097C30.1125 16.526 29.4683 15.8812 28.6849 15.8812H26.8125V14.5688C26.8125 13.39 26.242 11.2774 25.5388 9.36021C25.1871 8.40162 24.802 7.50701 24.4205 6.83042C24.3216 6.65506 24.2194 6.5386 24.12 6.39375H24.2005C24.7052 6.39375 25.1625 6.00765 25.1625 5.48657V4.00093C25.1625 3.47985 24.7045 3.09375 24.1997 3.09375H18.6995ZM18.6995 3.91875H24.1997C24.303 3.91875 24.3375 3.97585 24.3375 4.00093V5.48657C24.3375 5.51165 24.3031 5.56875 24.2005 5.56875H23.1H23.0775H19.8H18.6995C18.5969 5.56875 18.5625 5.51165 18.5625 5.48657V4.00093C18.5625 3.97585 18.5969 3.91875 18.6995 3.91875ZM19.8 6.39375H23.0718H23.0775C23.0114 6.39375 23.0998 6.3991 23.2313 6.5436C23.3629 6.68811 23.5295 6.92993 23.7018 7.23567C24.0466 7.84715 24.4231 8.71318 24.7645 9.6438C25.4473 11.505 25.9875 13.6864 25.9875 14.5688V15.8812H24.7049C24.69 15.87 24.6744 15.8598 24.6582 15.8506L17.3572 11.7087C17.7052 10.4919 18.1963 9.13648 18.693 8.08645C18.952 7.53906 19.2133 7.07492 19.4391 6.76999C19.552 6.61753 19.6569 6.50602 19.7307 6.44692C19.8045 6.38783 19.8358 6.39375 19.8 6.39375ZM10.6082 11.3438C11.7629 11.3438 12.7877 11.7945 13.573 12.4886L9.98461 15.8812H6.18751C6.18751 13.1883 8.14984 11.3438 10.6082 11.3438ZM15.6315 11.6781L23.0404 15.8812H11.1859L15.6315 11.6781ZM4.31515 16.7063H26.3307C26.3753 16.7136 26.4207 16.7136 26.4653 16.7063H28.6849C29.0201 16.7063 29.2875 16.9739 29.2875 17.3097V18.5786C29.2875 18.9139 29.0201 19.1812 28.6849 19.1812H28.05C27.9199 19.1814 27.7975 19.2429 27.7197 19.3472C27.6665 19.4184 27.6376 19.5049 27.6375 19.5938V22.2968C27.6355 22.3043 27.6346 22.3078 27.6319 22.3177C27.6193 22.3633 27.599 22.4316 27.5739 22.5175C27.5236 22.6894 27.4515 22.9325 27.3644 23.2217C27.1902 23.8 26.9573 24.5635 26.7247 25.3244C26.2635 26.8329 25.8103 28.3043 25.8022 28.3304C25.6881 28.6028 25.5818 28.8209 25.4864 28.9338C25.3893 29.0487 25.3434 29.0812 25.173 29.0812H7.82704C7.73892 29.0812 7.68986 29.0569 7.57406 28.9209C7.46362 28.7912 7.33392 28.563 7.19056 28.307C7.17561 28.2585 6.7329 26.8212 6.27533 25.3244C6.04271 24.5635 5.80984 23.8 5.63563 23.2217C5.54853 22.9325 5.47647 22.6894 5.42616 22.5175C5.40101 22.4316 5.38077 22.3633 5.36815 22.3177C5.36543 22.3078 5.36452 22.3043 5.36251 22.2968V19.5938C5.36242 19.5545 5.35673 19.5154 5.34559 19.4777V19.4769L5.34479 19.4761C5.30785 19.3524 5.21513 19.2531 5.09423 19.2078L5.09342 19.207L5.0902 19.2062C5.04527 19.1898 4.99783 19.1814 4.95001 19.1812H4.31515C3.9799 19.1812 3.71251 18.9136 3.71251 18.5778V17.3089C3.71251 16.9736 3.9799 16.7063 4.31515 16.7063ZM6.60001 19.1812L6.26969 19.3472L6.20443 19.7106L6.4566 19.9805L6.60001 20.0063L6.93033 19.8403L6.99559 19.4769L6.74342 19.207L6.60001 19.1812ZM8.25001 19.1812L7.91969 19.3472L7.85443 19.7106L8.1066 19.9805L8.25001 20.0063L8.58033 19.8403L8.64559 19.4769L8.39342 19.207L8.25001 19.1812ZM9.90001 19.1812L9.56969 19.3472L9.50443 19.7106L9.7566 19.9805L9.90001 20.0063L10.2303 19.8403L10.2956 19.4769L10.0434 19.207L9.90001 19.1812ZM11.55 19.1812L11.2197 19.3472L11.1544 19.7106L11.4066 19.9805L11.55 20.0063L11.8803 19.8403L11.9456 19.4769L11.6934 19.207L11.55 19.1812ZM13.2 19.1812L12.8697 19.3472L12.8044 19.7106L13.0566 19.9805L13.2 20.0063L13.5303 19.8403L13.5956 19.4769L13.3434 19.207L13.2 19.1812ZM14.85 19.1812L14.5197 19.3472L14.4544 19.7106L14.7066 19.9805L14.85 20.0063L15.1803 19.8403L15.2456 19.4769L14.9934 19.207L14.85 19.1812ZM16.5 19.1812L16.1697 19.3472L16.1044 19.7106L16.3566 19.9805L16.5 20.0063L16.8303 19.8403L16.8956 19.4769L16.6434 19.207L16.5 19.1812ZM18.15 19.1812L17.8197 19.3472L17.7544 19.7106L18.0066 19.9805L18.15 20.0063L18.4803 19.8403L18.5456 19.4769L18.2934 19.207L18.15 19.1812ZM19.8 19.1812L19.4697 19.3472L19.4044 19.7106L19.6566 19.9805L19.8 20.0063L20.1303 19.8403L20.1956 19.4769L19.9434 19.207L19.8 19.1812ZM21.45 19.1812L21.1197 19.3472L21.0544 19.7106L21.3066 19.9805L21.45 20.0063L21.7803 19.8403L21.8456 19.4769L21.5934 19.207L21.45 19.1812ZM23.1 19.1812L22.7697 19.3472L22.7044 19.7106L22.9566 19.9805L23.1 20.0063L23.4303 19.8403L23.4956 19.4769L23.2434 19.207L23.1 19.1812ZM24.75 19.1812L24.4197 19.3472L24.3544 19.7106L24.6066 19.9805L24.75 20.0063L25.0803 19.8403L25.1456 19.4769L24.8934 19.207L24.75 19.1812ZM26.4 19.1812L26.0697 19.3472L26.0044 19.7106L26.2566 19.9805L26.4 20.0063L26.7303 19.8403L26.7956 19.4769L26.5434 19.207L26.4 19.1812ZM16.4936 21.3751C16.2661 21.3786 16.0844 21.5657 16.0875 21.7932V26.2977L14.0419 24.2521C13.8809 24.0908 13.6195 24.0906 13.4582 24.2517C13.2969 24.4128 13.2968 24.6741 13.4578 24.8354L16.2084 27.5859C16.3695 27.747 16.6306 27.747 16.7917 27.5859L19.5422 24.8354C19.7033 24.6741 19.7031 24.4128 19.5418 24.2517C19.3805 24.0906 19.1192 24.0908 18.9581 24.2521L16.9125 26.2977V21.7932C16.914 21.6817 16.8704 21.5743 16.7914 21.4956C16.7125 21.4168 16.6051 21.3733 16.4936 21.3751Z" fill="#FFF3F4"/>
</g>
</g>
<defs>
<clipPath id="clip0_146_3">
<rect width="33" height="33" fill="white"/>
</clipPath>
<clipPath id="clip1_146_3">
<rect width="33" height="33" fill="white"/>
</clipPath>
</defs>
</svg>
