<svg width="23" height="28" viewBox="0 0 23 28" fill="none" xmlns="http://www.w3.org/2000/svg">
<path d="M15.5069 22.9004H0.624146" stroke="white" stroke-width="0.83" stroke-linecap="round" stroke-linejoin="round"/>
<path d="M15.5069 17.7258V25.2002C15.5069 25.8101 15.2657 26.3951 14.8363 26.8264C14.4068 27.2577 13.8245 27.5 13.2172 27.5H2.9138C2.30655 27.5 1.72416 27.2577 1.29477 26.8264C0.865372 26.3951 0.624146 25.8101 0.624146 25.2002V3.35204C0.624146 2.74209 0.865372 2.15713 1.29477 1.72583C1.72416 1.29453 2.30655 1.05223 2.9138 1.05223H8.63794" stroke="white" stroke-width="0.83" stroke-linecap="round" stroke-linejoin="round"/>
<path d="M15.5069 4.25586V3.35204" stroke="white" stroke-width="0.83" stroke-linecap="round" stroke-linejoin="round"/>
<path d="M17.2242 4.50194H14.8967C14.54 4.50219 14.1946 4.62709 13.9195 4.85522C13.6445 5.08336 13.4571 5.40051 13.3893 5.75227C13.3217 6.10404 13.378 6.46849 13.5486 6.78314C13.7192 7.09779 13.9935 7.343 14.3243 7.47674L16.6872 8.42656C17.0182 8.56029 17.2924 8.80551 17.463 9.12016C17.6337 9.4348 17.6899 9.79925 17.6222 10.151C17.5546 10.5028 17.367 10.8199 17.0921 11.0481C16.8171 11.2762 16.4716 11.4011 16.1148 11.4014H13.7897" stroke="white" stroke-width="0.83" stroke-linecap="round" stroke-linejoin="round"/>
<path d="M15.5069 12.5514V11.6476" stroke="white" stroke-width="0.83" stroke-linecap="round" stroke-linejoin="round"/>
<path d="M15.5069 14.8511C19.3005 14.8511 22.3759 11.7621 22.3759 7.95165C22.3759 4.1412 19.3005 1.05223 15.5069 1.05223C11.7133 1.05223 8.63794 4.1412 8.63794 7.95165C8.63794 11.7621 11.7133 14.8511 15.5069 14.8511Z" stroke="white" stroke-width="0.83" stroke-linecap="round" stroke-linejoin="round"/>
<path d="M8.05409 25.4877C7.89602 25.4877 7.76788 25.359 7.76788 25.2002C7.76788 25.0414 7.89602 24.9127 8.05409 24.9127" stroke="white" stroke-width="0.83" stroke-linecap="round"/>
<path d="M8.05408 25.4877C8.21214 25.4877 8.34028 25.359 8.34028 25.2002C8.34028 25.0414 8.21214 24.9127 8.05408 24.9127" stroke="white" stroke-width="0.83" stroke-linecap="round"/>
</svg>
