<svg width="38" height="39" viewBox="0 0 38 39" fill="none" xmlns="http://www.w3.org/2000/svg">
<g clip-path="url(#clip0_0_1)">
<path d="M19.17 9C16.3162 9 14.01 11.3062 14.01 14.16V16.31H12.29C11.5829 16.31 11 16.8929 11 17.6V27.92C11 28.6271 11.5829 29.21 12.29 29.21H26.05C26.7571 29.21 27.34 28.6271 27.34 27.92V17.6C27.34 16.8929 26.7571 16.31 26.05 16.31H24.33V14.16C24.33 11.3062 22.0238 9 19.17 9ZM19.17 9.86C21.5636 9.86 23.47 11.7664 23.47 14.16V16.31H14.87V14.16C14.87 11.7664 16.7764 9.86 19.17 9.86ZM12.29 17.17H26.05C26.2885 17.17 26.48 17.3615 26.48 17.6V27.92C26.48 28.1585 26.2885 28.35 26.05 28.35H12.29C12.0515 28.35 11.86 28.1585 11.86 27.92V17.6C11.86 17.3615 12.0515 17.17 12.29 17.17ZM19.17 20.61C18.4393 20.61 17.88 21.1693 17.88 21.9C17.88 22.2863 18.0513 22.6256 18.31 22.8406V24.05C18.31 24.5237 18.6963 24.91 19.17 24.91C19.6437 24.91 20.03 24.5237 20.03 24.05V22.8406C20.2887 22.6256 20.46 22.2863 20.46 21.9C20.46 21.1693 19.9007 20.61 19.17 20.61Z" fill="#FFF3F4"/>
</g>
<rect x="0.5" y="0.5" width="37" height="38" rx="4.5" stroke="#FFF3F4"/>
<g clip-path="url(#clip1_0_1)">
<path d="M19.17 9C16.3162 9 14.01 11.3062 14.01 14.16V16.31H12.29C11.5829 16.31 11 16.8929 11 17.6V27.92C11 28.6271 11.5829 29.21 12.29 29.21H26.05C26.7571 29.21 27.34 28.6271 27.34 27.92V17.6C27.34 16.8929 26.7571 16.31 26.05 16.31H24.33V14.16C24.33 11.3062 22.0238 9 19.17 9ZM19.17 9.86C21.5636 9.86 23.47 11.7664 23.47 14.16V16.31H14.87V14.16C14.87 11.7664 16.7764 9.86 19.17 9.86ZM12.29 17.17H26.05C26.2885 17.17 26.48 17.3615 26.48 17.6V27.92C26.48 28.1585 26.2885 28.35 26.05 28.35H12.29C12.0515 28.35 11.86 28.1585 11.86 27.92V17.6C11.86 17.3615 12.0515 17.17 12.29 17.17ZM19.17 20.61C18.4393 20.61 17.88 21.1693 17.88 21.9C17.88 22.2863 18.0513 22.6256 18.31 22.8406V24.05C18.31 24.5237 18.6963 24.91 19.17 24.91C19.6437 24.91 20.03 24.5237 20.03 24.05V22.8406C20.2887 22.6256 20.46 22.2863 20.46 21.9C20.46 21.1693 19.9007 20.61 19.17 20.61Z" fill="#FFF3F4"/>
</g>
<rect x="0.5" y="0.5" width="37" height="38" rx="4.5" stroke="#FFF3F4"/>
<defs>
<clipPath id="clip0_0_1">
<rect width="24" height="24" fill="white" transform="translate(8 9)"/>
</clipPath>
<clipPath id="clip1_0_1">
<rect width="24" height="24" fill="white" transform="translate(8 9)"/>
</clipPath>
</defs>
</svg>
