<svg width="50" height="50" viewBox="0 0 50 50" fill="none" xmlns="http://www.w3.org/2000/svg">
<path d="M40.2874 38.2502L40.581 39.083L41.1441 38.4028C44.1519 34.7696 45.9691 30.1075 45.9691 25C45.9691 13.3989 36.601 4.03083 25 4.03083C13.3989 4.03083 4.03081 13.3989 4.03081 25C4.03081 30.1076 5.84812 34.7701 8.87121 38.4038L9.43436 39.0807L9.72713 38.2502C11.2796 33.847 14.6235 30.3073 18.9085 28.5595L19.6374 28.2622L19.0584 27.7288C17.3077 26.1159 16.1958 23.8185 16.1958 21.2783C16.1958 16.4372 20.1588 12.4742 25 12.4742C29.8411 12.4742 33.8041 16.4372 33.8041 21.2783C33.8041 23.8185 32.6923 26.1159 30.9415 27.7288L30.3625 28.2622L31.0914 28.5595C35.3772 30.3077 38.7352 33.8478 40.2874 38.2502ZM38.0311 41.427L38.2714 41.2365L38.2106 40.9359C36.9584 34.7507 31.5702 30.0825 25 30.0825C18.4299 30.0825 13.041 34.7506 11.8037 40.9371L11.7438 41.2363L11.9826 41.4264C15.5569 44.2709 20.0707 45.9692 25 45.9692C29.9294 45.9692 34.4428 44.2708 38.0311 41.427ZM1.30914 25C1.30914 11.945 11.945 1.30917 25 1.30917C38.055 1.30917 48.6908 11.945 48.6908 25C48.6908 38.055 38.055 48.6908 25 48.6908C11.945 48.6908 1.30914 38.055 1.30914 25ZM31.0825 21.2783C31.0825 17.8911 28.3872 15.1958 25 15.1958C21.6128 15.1958 18.9175 17.8911 18.9175 21.2783C18.9175 24.6656 21.6128 27.3608 25 27.3608C28.3872 27.3608 31.0825 24.6656 31.0825 21.2783Z" fill="#FFF3F4" stroke="black"/>
</svg>
